# xmcd
#
# Track frame offsets:
# 150
# 15462
# 33213
# 48993
# 64137
# 78201
# 95301
# 109047
# 122523
# 138195
# 152661
# 167979
#
# Disc length: 2309 seconds
#
#
# Revision: 0
# Processed by: cddbd v1.5.1PL0 Copyright (c) Steve Scherf et al.
# Submitted via: FreeRIP 2.90 
#
DISCID=8809030c
DTITLE=Craig Moritz - The Way I Feel
DYEAR=2005
DGENRE=Country
TTITLE0=Say The Word
TTITLE1=Good Rain
TTITLE2=Love's Hard
TTITLE3=Plain Ol' Pain
TTITLE4=The I Feel Right Now
TTITLE5=Remember Me
TTITLE6=Heavy Metal
TTITLE7=Just Some Love
TTITLE8=It's All Over Me Now
TTITLE9=You
TTITLE10=Lonely
TTITLE11=Bonus
EXTD=
EXTT0=
EXTT1=
EXTT2=
EXTT3=
EXTT4=
EXTT5=
EXTT6=
EXTT7=
EXTT8=
EXTT9=
EXTT10=
EXTT11=
PLAYORDER=
